<svg xmlns="http://www.w3.org/2000/svg" xmlns:xlink="http://www.w3.org/1999/xlink" width="55" height="55" viewBox="0 0 55 55">
    <defs>
        <path id="b" d="M27.059 0c14.944 0 27.059 12.115 27.059 27.059S42.003 54.118 27.059 54.118 0 42.003 0 27.059 12.115 0 27.059 0z"/>
        <filter id="a" width="125.9%" height="125.9%" x="-12.9%" y="-9.2%" filterUnits="objectBoundingBox">
            <feOffset dy="2" in="SourceAlpha" result="shadowOffsetOuter1"/>
            <feGaussianBlur in="shadowOffsetOuter1" result="shadowBlurOuter1" stdDeviation="2"/>
            <feColorMatrix in="shadowBlurOuter1" values="0 0 0 0 0 0 0 0 0 0 0 0 0 0 0 0 0 0 0.2 0"/>
        </filter>
    </defs>
    <g fill="none" fill-rule="nonzero">
        <use fill="#000" filter="url(#a)" xlink:href="#b"/>
        <use fill="#FFF" xlink:href="#b"/>
        <g fill="#FF8181">
            <path d="M27.38 37.567a.648.648 0 0 0 .65-.654V23.165a.652.652 0 0 0-.65-.654c-.36 0-.65.293-.65.654V36.91a.656.656 0 0 0 .65.656zm-3.26 0a.648.648 0 0 0 .651-.654l-.65-13.748a.652.652 0 0 0-.65-.654c-.36 0-.65.293-.65.654l.65 13.746a.656.656 0 0 0 .65.656zM39.11 18.58h-5.862V16.62A2.613 2.613 0 0 0 30.64 14h-6.52a2.613 2.613 0 0 0-2.606 2.619v1.962H15.65c-.36 0-.651.293-.651.654 0 .36.291.653.65.653h2.734l1.83 18.984a2.613 2.613 0 0 0 2.606 2.619h9.124a2.613 2.613 0 0 0 2.607-2.619l1.825-18.98h2.734c.36 0 .652-.294.652-.656a.654.654 0 0 0-.652-.655zM22.82 16.62c0-.348.137-.682.381-.928a1.3 1.3 0 0 1 .923-.384h6.517a1.3 1.3 0 0 1 .922.384c.245.246.382.58.381.928v1.962H22.82V16.62zm10.428 22.257c0 .348-.138.681-.383.927a1.3 1.3 0 0 1-.924.382h-9.12a1.3 1.3 0 0 1-.923-.383 1.312 1.312 0 0 1-.382-.927l-1.83-18.983h15.389l-1.827 18.984zm-2.607-1.31a.648.648 0 0 0 .65-.653l.65-13.748a.652.652 0 0 0-.65-.654c-.36 0-.651.293-.651.654l-.65 13.746a.654.654 0 0 0 .65.656z"/>
        </g>
    </g>
</svg>
