<svg xmlns="http://www.w3.org/2000/svg" width="25" height="27" viewBox="0 0 25 27">
    <defs>
        <linearGradient id="a" x1="-2.623%" x2="102.57%" y1="0%" y2="100%">
            <stop offset="0%" stop-color="#FF3B3B"/>
            <stop offset="100%" stop-color="#FF7F00"/>
        </linearGradient>
    </defs>
    <path fill="url(#a)" fill-rule="nonzero" d="M12.38 23.567a.648.648 0 0 0 .65-.654V9.165a.652.652 0 0 0-.65-.654c-.36 0-.65.293-.65.654V22.91a.656.656 0 0 0 .65.656zm-3.26 0a.648.648 0 0 0 .651-.654l-.65-13.748a.652.652 0 0 0-.65-.654c-.36 0-.65.293-.65.654l.65 13.746a.656.656 0 0 0 .65.656zM24.11 4.58h-5.862V2.62A2.613 2.613 0 0 0 15.64 0H9.12a2.613 2.613 0 0 0-2.606 2.619V4.58H.65c-.36 0-.651.293-.651.654 0 .36.291.653.65.653h2.734l1.83 18.984a2.613 2.613 0 0 0 2.606 2.619h9.124a2.613 2.613 0 0 0 2.607-2.619l1.825-18.98h2.734c.36 0 .652-.294.652-.656a.654.654 0 0 0-.652-.655zM7.82 2.62c0-.348.137-.682.381-.928a1.3 1.3 0 0 1 .923-.384h6.517a1.3 1.3 0 0 1 .922.384c.245.246.382.58.381.928V4.58H7.82V2.62zm10.428 22.257c0 .348-.138.681-.383.927a1.3 1.3 0 0 1-.924.382H7.82a1.3 1.3 0 0 1-.923-.383 1.312 1.312 0 0 1-.382-.927L4.686 5.892h15.389l-1.827 18.984zm-2.607-1.31a.648.648 0 0 0 .65-.653l.65-13.748a.652.652 0 0 0-.65-.654c-.36 0-.651.293-.651.654l-.65 13.746a.654.654 0 0 0 .65.656z"/>
</svg>
