<?xml version="1.0" encoding="UTF-8"?>
<svg width="16px" height="16px" viewBox="0 0 16 16" version="1.1" xmlns="http://www.w3.org/2000/svg" xmlns:xlink="http://www.w3.org/1999/xlink">
    <!-- Generator: Sketch 51.2 (57519) - http://www.bohemiancoding.com/sketch -->
    <title>iconCombined Shape</title>
    <desc>Created with Sketch.</desc>
    <defs></defs>
    <g id="Shop" stroke="none" stroke-width="1" fill="none" fill-rule="evenodd">
        <g id="Log_In" transform="translate(-660.000000, -258.000000)" stroke="#000000">
            <path d="M677.142136,265.800469 L668.842136,265.800469 L668.842136,257.142136 C668.842136,256.865993 668.618278,256.642136 668.342136,256.642136 C668.065993,256.642136 667.842136,256.865993 667.842136,257.142136 L667.842136,265.800469 L659.142136,265.800469 C658.865993,265.800469 658.642136,266.024327 658.642136,266.300469 C658.642136,266.576611 658.865993,266.800469 659.142136,266.800469 L667.842136,266.800469 L667.842136,275.142136 C667.842136,275.418278 668.065993,275.642136 668.342136,275.642136 C668.618278,275.642136 668.842136,275.418278 668.842136,275.142136 L668.842136,266.800469 L677.142136,266.800469 C677.418278,266.800469 677.642136,266.576611 677.642136,266.300469 C677.642136,266.024327 677.418278,265.800469 677.142136,265.800469 Z" id="Combined-Shape" transform="translate(668.142136, 266.142136) rotate(45.000000) translate(-668.142136, -266.142136) "></path>
        </g>
    </g>
</svg>